{"glyphs":{"A":{"ha":889,"x_min":26,"x_max":863,"o":"m 169 -10 q 63 33 100 -10 q 26 186 26 75 q 38 313 26 239 q 72 469 50 386 q 122 636 93 553 q 183 792 150 719 q 271 935 225 883 q 366 1006 317 986 q 471 1026 415 1026 q 624 976 554 1026 q 746 799 694 925 q 804 623 778 721 q 847 418 831 525 q 863 208 863 311 q 817 42 863 94 q 689 -10 771 -10 q 577 32 618 -10 q 526 172 536 74 q 522 240 524 206 q 521 310 521 275 q 372 313 449 303 q 363 241 368 275 q 351 176 357 207 q 294 38 338 85 q 169 -10 251 -10 m 463 511 q 559 538 525 511 q 593 611 593 565 q 576 679 593 642 q 531 744 560 717 q 465 772 503 772 q 399 743 428 772 q 353 674 369 714 q 336 600 336 635 q 369 536 336 561 q 463 511 403 511 z "},"B":{"ha":889,"x_min":49,"x_max":851,"o":"m 350 -7 q 181 26 246 -7 q 86 129 117 58 q 58 242 67 175 q 49 396 49 308 q 60 627 49 532 q 91 788 71 722 q 140 896 111 853 q 267 991 179 956 q 514 1026 354 1026 q 706 998 633 1026 q 812 920 779 969 q 844 810 844 871 q 787 658 844 717 q 636 567 729 600 l 636 561 q 794 497 738 551 q 851 340 851 443 q 809 201 851 264 q 694 91 767 138 q 533 19 622 44 q 350 -7 443 -7 m 432 628 q 547 657 503 628 q 592 735 592 686 q 558 794 592 772 q 463 817 525 817 q 365 792 403 817 q 326 715 326 767 q 355 648 326 668 q 432 628 383 628 m 431 221 q 549 253 503 221 q 596 336 596 285 q 560 403 596 376 q 449 431 524 431 q 354 403 392 431 q 317 318 317 375 q 345 244 317 267 q 431 221 374 221 z "},"C":{"ha":911,"x_min":33,"x_max":899,"o":"m 547 -15 q 260 44 374 -15 q 90 210 146 103 q 33 460 33 317 q 97 737 33 618 q 279 921 160 856 q 568 986 399 986 q 812 925 725 986 q 899 760 899 864 q 857 644 899 688 q 738 601 815 601 q 658 615 693 601 q 588 640 624 628 q 504 653 551 653 q 417 638 457 653 q 353 585 378 622 q 329 485 329 549 q 376 358 329 396 q 501 321 424 321 q 578 326 536 321 q 661 337 621 332 q 731 342 701 342 q 837 305 797 342 q 876 197 876 268 q 795 42 876 100 q 547 -15 714 -15 z "},"D":{"ha":983,"x_min":19,"x_max":951,"o":"m 281 -32 q 134 -17 186 -32 q 63 26 82 -1 q 42 92 43 54 q 76 180 42 143 q 199 233 110 217 q 185 397 188 306 q 187 578 182 489 q 204 736 192 668 l 204 736 q 64 765 108 736 q 19 849 19 794 q 98 975 19 929 q 340 1021 176 1021 q 674 960 538 1021 q 881 792 810 900 q 951 542 951 685 q 903 312 951 417 q 767 130 856 207 q 555 10 678 53 q 281 -32 432 -32 m 492 292 q 568 317 532 292 q 627 391 604 343 q 650 507 650 439 q 625 629 650 578 q 560 709 600 681 q 479 738 521 738 q 434 692 446 738 q 422 531 422 646 q 436 350 422 408 q 492 292 450 292 z "},"E":{"ha":801,"x_min":49,"x_max":782,"o":"m 551 1022 q 731 985 679 1022 q 782 876 782 947 q 722 767 782 803 q 536 731 661 731 q 438 733 493 731 q 324 739 383 735 q 321 599 342 671 q 439 616 371 608 q 563 624 507 624 q 706 593 664 624 q 747 519 747 563 q 700 439 747 472 q 539 406 653 406 q 319 422 432 406 q 332 340 332 385 q 318 258 332 294 q 451 285 375 275 q 593 296 528 296 q 733 266 686 296 q 779 171 779 236 q 759 97 779 126 q 693 44 739 67 q 550 6 639 19 q 375 -8 461 -8 q 103 94 164 -8 q 62 226 75 144 q 49 449 49 307 q 59 669 49 582 q 87 810 69 756 q 128 896 104 864 q 228 972 163 944 q 376 1010 293 999 q 551 1022 460 1022 z "},"F":{"ha":744,"x_min":49,"x_max":731,"o":"m 517 994 q 681 955 632 994 q 731 846 731 915 q 662 724 731 763 q 450 686 593 686 q 393 687 425 686 q 326 690 361 688 q 322 601 329 649 q 553 572 468 593 q 674 513 638 550 q 710 417 710 475 q 674 338 710 369 q 568 306 639 306 q 344 363 461 306 q 368 257 358 318 q 378 139 378 196 q 337 6 378 49 q 225 -36 296 -36 q 138 -15 175 -36 q 85 49 101 6 q 58 179 68 92 q 49 407 49 267 q 71 712 49 599 q 128 874 93 825 q 225 944 161 918 q 366 983 289 971 q 517 994 443 994 z "},"G":{"ha":988,"x_min":33,"x_max":979,"o":"m 938 251 q 894 124 938 185 q 760 24 851 63 q 525 -15 669 -15 q 249 44 358 -15 q 87 210 140 103 q 33 464 33 318 q 105 749 33 625 q 306 944 176 874 q 613 1014 436 1014 q 832 963 756 1014 q 908 819 908 913 q 867 722 908 757 q 746 686 825 686 q 653 693 703 686 q 554 700 604 700 q 429 677 486 700 q 338 601 372 654 q 304 461 304 549 q 372 289 304 342 q 546 236 439 236 q 671 267 638 236 q 707 360 704 297 q 660 358 682 358 q 617 358 638 358 q 467 376 507 358 q 428 438 428 393 q 510 538 428 496 q 612 568 549 556 q 756 581 675 581 q 924 554 868 581 q 979 479 979 528 q 956 419 979 444 q 879 381 932 393 q 924 322 910 354 q 938 251 938 289 z "},"H":{"ha":950,"x_min":49,"x_max":901,"o":"m 251 1021 q 351 985 315 1021 q 386 875 386 949 q 372 751 386 819 q 332 617 358 682 q 600 613 472 642 q 574 753 582 683 q 567 878 567 822 q 710 1029 567 1029 q 817 991 779 1029 q 871 876 854 953 q 893 719 885 811 q 901 532 901 626 q 895 341 901 438 q 875 161 889 244 q 821 33 860 72 q 706 -7 782 -7 q 590 35 625 -7 q 553 176 554 78 q 564 296 554 233 q 590 419 574 358 q 329 424 464 400 q 372 293 356 360 q 388 160 388 226 q 344 29 388 69 q 226 -11 300 -11 q 125 20 164 -11 q 71 132 86 51 q 54 274 60 189 q 49 454 49 360 q 59 677 49 569 q 88 864 69 785 q 143 980 104 939 q 251 1021 182 1021 z "},"I":{"ha":446,"x_min":49,"x_max":396,"o":"m 228 1035 q 323 1001 286 1035 q 375 882 360 967 q 390 738 385 828 q 396 551 396 649 q 375 236 396 374 q 318 88 358 131 q 215 44 278 44 q 119 79 158 44 q 65 201 79 114 q 53 319 58 244 q 49 482 49 394 q 57 703 49 600 q 79 875 65 807 q 133 997 96 960 q 228 1035 169 1035 z "},"J":{"ha":881,"x_min":13,"x_max":868,"o":"m 793 410 q 749 198 793 294 q 614 43 706 101 q 378 -15 522 -15 q 103 70 194 -15 q 13 313 13 156 q 39 453 13 396 q 108 541 65 511 q 201 571 151 571 q 288 540 258 571 q 318 457 318 508 q 313 406 318 433 q 307 356 307 379 q 399 236 307 236 q 494 292 467 236 q 522 444 522 347 q 510 583 522 515 q 469 721 497 650 q 322 700 386 700 q 217 728 254 700 q 181 814 181 757 q 288 964 181 903 q 415 1007 339 990 q 589 1024 492 1024 q 792 983 724 1024 q 850 931 832 963 q 868 860 868 900 q 834 772 868 804 q 725 739 800 739 q 708 739 717 739 q 771 583 749 668 q 793 410 793 499 z "},"K":{"ha":876,"x_min":49,"x_max":864,"o":"m 183 -14 q 78 67 100 -14 q 57 204 65 110 q 49 413 49 299 q 56 649 49 533 q 79 853 63 764 q 123 962 92 926 q 215 997 154 997 q 321 947 285 997 q 357 769 357 897 q 351 650 357 721 l 357 650 q 500 870 432 790 q 628 983 568 950 q 742 1017 689 1017 q 832 977 800 1017 q 863 879 864 938 q 783 711 864 796 q 521 525 701 626 q 758 323 681 417 q 836 135 836 229 q 798 38 836 75 q 690 1 760 1 q 567 40 626 1 q 453 168 508 79 q 343 407 397 257 l 338 407 q 340 363 339 385 q 340 319 342 340 q 306 63 340 140 q 183 -14 272 -14 z "},"L":{"ha":781,"x_min":49,"x_max":768,"o":"m 338 -8 q 187 17 242 -8 q 101 97 132 42 q 61 231 74 146 q 49 463 49 317 q 56 681 49 576 q 76 844 64 786 q 131 969 93 931 q 228 1007 169 1007 q 323 969 289 1007 q 372 868 357 932 q 386 728 386 804 q 368 505 386 618 q 321 293 350 392 q 464 372 386 344 q 614 399 542 399 q 728 361 689 399 q 768 257 768 324 q 728 140 768 194 q 624 53 689 86 q 491 8 569 25 q 338 -8 413 -8 z "},"M":{"ha":1043,"x_min":49,"x_max":994,"o":"m 817 -11 q 738 7 771 -11 q 685 69 704 25 q 667 196 667 114 q 676 367 667 275 q 701 553 686 458 q 729 736 715 647 l 724 736 q 627 465 679 549 q 513 382 575 382 q 440 413 472 382 q 378 523 408 443 q 314 750 347 603 l 308 750 q 332 577 319 669 q 353 397 344 485 q 361 246 361 310 q 347 135 361 185 q 300 56 333 85 q 206 26 267 26 q 88 77 126 26 q 49 247 49 128 q 52 372 49 300 q 62 520 56 443 q 76 669 68 597 q 93 794 85 740 q 156 951 113 904 q 271 999 200 999 q 363 969 317 999 q 448 865 408 940 q 518 650 488 789 l 524 650 q 587 876 550 794 q 667 991 624 957 q 757 1025 710 1025 q 872 976 829 1025 q 936 838 915 926 q 967 654 954 758 q 988 441 981 550 q 994 239 994 332 q 946 45 994 101 q 817 -11 897 -11 z "},"N":{"ha":968,"x_min":49,"x_max":919,"o":"m 251 988 q 348 958 303 988 q 438 859 393 928 q 530 676 482 790 q 635 394 578 561 l 640 394 q 619 533 629 456 q 603 683 610 610 q 597 803 597 756 q 632 973 597 921 q 732 1025 667 1025 q 810 1002 781 1025 q 860 936 840 979 q 906 731 893 861 q 919 435 919 601 q 888 117 919 219 q 758 14 856 14 q 658 42 706 14 q 560 140 610 69 q 456 338 511 211 q 332 664 400 465 l 326 664 q 348 539 339 613 q 363 388 357 465 q 369 247 369 311 q 331 49 369 108 q 210 -10 292 -10 q 86 51 124 -10 q 49 240 49 113 q 52 388 49 306 q 63 559 56 471 q 79 726 69 647 q 132 922 94 857 q 251 988 169 988 z "},"O":{"ha":1063,"x_min":33,"x_max":1031,"o":"m 515 10 q 260 64 368 10 q 92 219 151 118 q 33 457 33 319 q 93 725 33 610 q 263 905 153 840 q 519 969 372 969 q 789 907 674 969 q 967 733 904 844 q 1031 472 1031 621 q 967 226 1031 329 q 787 66 903 122 q 515 10 671 10 m 536 346 q 673 397 621 346 q 725 529 725 449 q 673 660 725 608 q 536 711 621 711 q 399 660 451 711 q 347 529 347 608 q 399 397 347 449 q 536 346 451 346 z "},"P":{"ha":844,"x_min":49,"x_max":825,"o":"m 476 999 q 740 914 656 999 q 825 692 825 829 q 781 528 825 597 q 663 420 738 458 q 494 382 588 382 q 428 387 463 382 q 356 406 393 392 q 374 294 367 356 q 381 183 381 233 q 339 40 381 89 q 214 -10 297 -10 q 114 23 150 -10 q 63 129 78 56 q 49 328 49 203 q 132 844 49 693 q 260 957 172 915 q 476 999 347 999 m 440 574 q 560 610 513 574 q 607 714 607 647 q 579 785 607 756 q 488 814 551 814 q 369 769 414 814 q 324 664 324 724 q 353 598 324 622 q 440 574 382 574 z "},"Q":{"ha":1085,"x_min":33,"x_max":1111,"o":"m 499 10 q 250 67 354 10 q 90 226 146 124 q 33 468 33 329 q 97 749 33 626 q 276 940 160 871 q 550 1008 393 1008 q 756 970 664 1008 q 913 865 847 932 q 1015 710 979 797 q 1050 528 1050 624 q 954 240 1050 349 q 1069 178 1028 215 q 1111 90 1111 142 q 1080 10 1111 46 q 992 -25 1049 -25 q 899 9 946 -25 q 811 107 851 43 q 674 34 757 58 q 499 10 590 10 m 550 324 q 642 339 601 324 q 519 481 519 401 q 544 542 519 521 q 604 564 568 564 q 685 533 649 564 q 750 443 721 503 q 763 525 763 481 q 701 681 763 624 q 538 739 639 739 q 385 680 443 739 q 328 529 328 621 q 389 380 328 436 q 550 324 450 324 z "},"R":{"ha":926,"x_min":49,"x_max":901,"o":"m 219 -10 q 115 24 153 -10 q 63 135 78 58 q 49 339 49 211 q 74 652 49 521 q 153 860 100 783 q 317 988 217 950 q 535 1026 418 1026 q 812 943 722 1026 q 901 725 901 860 q 856 567 901 631 q 731 471 810 503 q 551 440 651 439 l 551 435 q 815 299 736 371 q 894 151 894 226 q 850 46 894 85 q 731 7 806 7 q 606 43 664 7 q 489 166 549 79 q 360 406 429 253 l 354 406 q 371 299 364 364 q 378 181 378 233 q 342 39 378 88 q 219 -10 307 -10 m 486 604 q 586 633 546 604 q 626 711 626 663 q 595 796 626 763 q 500 829 564 829 q 397 794 435 829 q 360 713 360 760 q 392 635 360 665 q 486 604 425 604 z "},"S":{"ha":811,"x_min":19,"x_max":792,"o":"m 360 -4 q 243 5 303 -4 q 133 36 183 14 q 51 97 82 58 q 19 194 19 136 q 55 293 19 260 q 169 326 90 326 q 275 317 218 326 q 372 307 332 307 q 438 321 417 307 q 460 357 460 335 q 429 398 460 383 q 318 432 399 413 q 108 519 171 461 q 46 681 46 576 q 91 842 46 776 q 207 948 136 908 q 359 1005 278 988 q 511 1022 440 1022 q 715 978 638 1022 q 792 850 792 933 q 751 744 792 785 q 622 703 710 703 q 552 707 592 703 q 474 715 513 711 q 407 719 435 719 q 314 668 314 719 q 340 628 314 646 q 453 586 365 610 q 635 516 568 557 q 732 422 703 475 q 761 301 761 369 q 710 141 761 210 q 569 34 660 72 q 360 -4 479 -4 z "},"T":{"ha":840,"x_min":13,"x_max":828,"o":"m 438 1021 q 606 1011 538 1021 q 719 985 674 1001 q 806 917 783 958 q 828 821 828 875 q 786 703 828 749 q 663 658 744 658 q 506 682 590 657 q 551 518 532 607 q 580 349 569 429 q 590 214 590 268 q 548 48 590 106 q 407 -10 506 -10 q 231 197 231 -10 q 245 349 231 263 q 283 522 260 435 q 336 679 307 610 q 254 660 299 668 q 176 653 210 653 q 50 690 88 653 q 13 794 13 728 q 40 897 13 853 q 129 972 68 942 q 256 1009 181 997 q 438 1021 331 1021 z "},"U":{"ha":907,"x_min":49,"x_max":858,"o":"m 435 -11 q 140 88 231 -11 q 49 411 49 186 q 53 562 49 485 q 67 710 58 639 q 88 836 75 782 q 144 951 104 908 q 260 993 185 993 q 361 960 325 993 q 397 861 397 926 q 388 781 397 832 q 367 671 379 731 q 344 554 354 611 q 335 456 335 497 q 367 349 335 381 q 457 317 400 317 q 544 350 515 317 q 572 456 572 383 q 567 549 572 492 q 554 669 561 607 q 542 783 547 731 q 536 864 536 836 q 672 1015 536 1015 q 776 978 740 1015 q 828 865 813 940 q 844 744 838 814 q 855 597 851 674 q 858 454 858 521 q 815 187 858 289 q 677 37 771 85 q 435 -11 583 -11 z "},"V":{"ha":892,"x_min":26,"x_max":865,"o":"m 726 1026 q 833 968 800 1026 q 865 792 865 910 q 851 654 865 735 q 808 483 836 574 q 740 306 781 393 q 649 147 700 218 q 538 33 599 76 q 408 -10 476 -10 q 283 31 339 -10 q 185 138 228 71 q 113 289 143 206 q 64 460 83 372 q 35 627 44 547 q 26 768 26 707 q 73 944 26 889 q 204 999 119 999 q 306 951 274 999 q 351 790 338 903 q 387 551 364 690 q 435 265 410 411 l 440 265 q 490 463 465 361 q 536 658 514 564 q 574 828 558 753 q 628 978 596 929 q 726 1026 660 1026 z "},"W":{"ha":1129,"x_min":49,"x_max":1081,"o":"m 49 726 q 91 927 49 867 q 221 988 133 988 q 308 958 276 988 q 351 881 339 929 q 364 772 364 832 q 360 649 364 719 q 352 505 357 579 q 340 367 347 431 l 346 367 q 413 631 381 532 q 481 773 446 729 q 556 817 515 817 q 633 772 597 817 q 702 631 668 728 q 775 378 736 535 l 781 378 q 769 590 774 479 q 764 794 764 701 q 781 935 764 885 q 830 1006 799 986 q 903 1025 861 1025 q 1033 951 986 1025 q 1081 735 1081 876 q 1063 444 1081 593 q 1017 178 1046 296 q 952 38 993 88 q 847 -11 911 -11 q 745 36 796 -11 q 649 193 694 83 q 565 489 603 303 l 560 489 q 476 202 521 306 q 378 57 431 99 q 263 15 325 15 q 157 63 196 15 q 96 221 118 110 q 78 337 86 271 q 63 474 69 403 q 53 610 57 544 q 49 726 49 676 z "},"X":{"ha":1022,"x_min":19,"x_max":1003,"o":"m 179 -10 q 63 37 107 -10 q 19 153 19 83 q 103 337 19 240 q 343 506 186 433 l 343 511 q 140 646 206 572 q 75 797 75 719 q 100 891 75 851 q 164 952 125 931 q 244 974 203 974 q 415 880 343 974 q 514 621 488 786 l 519 621 q 662 930 576 835 q 836 1025 747 1025 q 955 972 907 1025 q 1003 839 1003 918 q 918 665 1003 747 q 681 524 833 583 l 681 518 q 914 360 839 447 q 989 186 989 272 q 960 90 989 131 q 887 28 931 50 q 797 6 843 6 q 616 110 693 6 q 507 399 539 214 l 501 399 q 410 164 464 254 q 297 32 357 74 q 179 -10 238 -10 z "},"Y":{"ha":914,"x_min":13,"x_max":901,"o":"m 403 -12 q 285 28 329 -12 q 240 172 240 68 q 266 358 240 264 q 328 515 292 451 q 86 651 160 578 q 13 804 13 724 q 39 913 13 867 q 108 985 65 960 q 200 1010 150 1010 q 345 915 286 1010 q 435 657 404 821 l 440 657 q 525 869 475 788 q 631 988 575 950 q 739 1025 686 1025 q 858 971 815 1025 q 901 835 901 917 q 798 640 901 726 q 511 510 694 553 q 576 347 550 436 q 603 185 603 257 q 547 38 603 89 q 403 -12 492 -12 z "},"Z":{"ha":839,"x_min":19,"x_max":819,"o":"m 19 189 q 71 342 19 260 q 237 523 122 424 q 544 746 351 622 l 544 750 q 420 717 488 732 q 291 694 353 703 q 188 685 229 685 q 60 719 100 685 q 21 818 21 754 q 94 958 21 917 q 263 1008 160 993 q 488 1024 367 1024 q 676 1008 603 1024 q 784 952 749 993 q 819 831 819 911 q 792 728 819 785 q 700 604 764 672 q 527 451 636 536 q 256 260 418 365 l 256 257 q 369 297 304 279 q 504 324 435 314 q 635 335 574 335 q 767 303 726 335 q 808 200 808 271 q 755 76 808 122 q 603 15 701 29 q 492 1 551 7 q 375 -7 432 -4 q 272 -10 318 -10 q 19 189 19 -10 z "}," ":{"ha":278,"x_min":0,"x_max":0,"o":""},"!":{"ha":342,"x_min":24,"x_max":317,"o":"m 183 1032 q 286 976 256 1032 q 317 815 317 919 q 305 620 317 718 q 275 454 293 522 q 223 346 254 379 q 150 313 192 313 q 60 411 86 313 q 35 732 35 510 q 47 908 35 843 q 92 1003 60 974 q 183 1032 125 1032 m 24 99 q 71 198 24 167 q 176 229 118 229 q 277 197 242 229 q 313 111 313 165 q 269 15 313 44 q 163 -15 225 -15 q 59 16 94 -15 q 24 99 24 47 z "}}}
